<svg xmlns="http://www.w3.org/2000/svg" viewBox="0 0 32 40" x="0px" y="0px"><path d="M24.26,13.02c-.04-.00995-.09,0-.13-.00995a8.50391,8.50391,0,0,0-16.26,0c-.04.00995-.09,0-.13.00995C3.46,14.19,1,16.19,1,18.5,1,22.72,8.73,25,16,25s15-2.28,15-6.5C31,16.19,28.54,14.19,24.26,13.02ZM16,9a6.51263,6.51263,0,0,1,6.5,6.5,2.43373,2.43373,0,0,1-.01.27,17.83823,17.83823,0,0,1-12.98,0,2.43373,2.43373,0,0,1-.01-.27A6.51263,6.51263,0,0,1,16,9ZM9.71,20.71A1,1,0,0,1,8,20a1,1,0,0,1,1.71-.71A1.05159,1.05159,0,0,1,10,20,.98972.98972,0,0,1,9.71,20.71Zm7.21.67a1.15421,1.15421,0,0,1-.21.33,1.01409,1.01409,0,0,1-1.42,0,1.15421,1.15421,0,0,1-.21-.33A.83849.83849,0,0,1,15,21a1.05159,1.05159,0,0,1,.29-.71,1.59143,1.59143,0,0,1,.15-.12.7588.7588,0,0,1,.18-.09.63672.63672,0,0,1,.18-.06.95654.95654,0,0,1,.58.06.55666.55666,0,0,1,.17.09.96.96,0,0,1,.16.12A1.05159,1.05159,0,0,1,17,21,.99559.99559,0,0,1,16.92,21.38Zm7-1a1.15421,1.15421,0,0,1-.21.33,1.01409,1.01409,0,0,1-1.42,0,1.15421,1.15421,0,0,1-.21-.33A.83849.83849,0,0,1,22,20a1.05159,1.05159,0,0,1,.29-.71,1.03387,1.03387,0,0,1,.33-.21.93256.93256,0,0,1,.57-.06.60416.60416,0,0,1,.19.06.55666.55666,0,0,1,.17.09.96.96,0,0,1,.16.12A1.05159,1.05159,0,0,1,24,20,.99559.99559,0,0,1,23.92,20.38Z"/><text x="0" y="47" fill="#000000" font-size="5px" font-weight="bold" font-family="'Helvetica Neue', Helvetica, Arial-Unicode, Arial, Sans-serif">Created by Ricons</text><text x="0" y="52" fill="#000000" font-size="5px" font-weight="bold" font-family="'Helvetica Neue', Helvetica, Arial-Unicode, Arial, Sans-serif">from the Noun Project</text></svg>